[
    {
        "time": 0.627,
        "notes": [
            {
                "midi": 45,
                "name": "A2",
                "vel": 84
            }
        ]
    },
    {
        "time": 0.952,
        "notes": [
            {
                "midi": 52,
                "name": "E3",
                "vel": 59
            }
        ]
    },
    {
        "time": 1.266,
        "notes": [
            {
                "midi": 56,
                "name": "G#3",
                "vel": 61
            }
        ]
    },
    {
        "time": 1.591,
        "notes": [
            {
                "midi": 61,
                "name": "C#4",
                "vel": 71
            }
        ]
    },
    {
        "time": 1.893,
        "notes": [
            {
                "midi": 56,
                "name": "G#3",
                "vel": 71
            }
        ]
    },
    {
        "time": 2.195,
        "notes": [
            {
                "midi": 52,
                "name": "E3",
                "vel": 47
            }
        ]
    },
    {
        "time": 2.52,
        "notes": [
            {
                "midi": 61,
                "name": "C#4",
                "vel": 68
            }
        ]
    },
    {
        "time": 2.834,
        "notes": [
            {
                "midi": 56,
                "name": "G#3",
                "vel": 74
            }
        ]
    },
    {
        "time": 3.136,
        "notes": [
            {
                "midi": 52,
                "name": "E3",
                "vel": 58
            }
        ]
    },
    {
        "time": 3.484,
        "notes": [
            {
                "midi": 61,
                "name": "C#4",
                "vel": 66
            }
        ]
    },
    {
        "time": 3.775,
        "notes": [
            {
                "midi": 56,
                "name": "G#3",
                "vel": 70
            }
        ]
    },
    {
        "time": 4.159,
        "notes": [
            {
                "midi": 40,
                "name": "E2",
                "vel": 44
            }
        ]
    },
    {
        "time": 4.345,
        "notes": [
            {
                "midi": 33,
                "name": "A1",
                "vel": 46
            }
        ]
    },
    {
        "time": 4.368,
        "notes": [
            {
                "midi": 45,
                "name": "A2",
                "vel": 97
            }
        ]
    },
    {
        "time": 4.682,
        "notes": [
            {
                "midi": 52,
                "name": "E3",
                "vel": 54
            }
        ]
    },
    {
        "time": 4.973,
        "notes": [
            {
                "midi": 56,
                "name": "G#3",
                "vel": 63
            }
        ]
    },
    {
        "time": 5.309,
        "notes": [
            {
                "midi": 61,
                "name": "C#4",
                "vel": 68
            }
        ]
    },
    {
        "time": 5.609,
        "notes": [
            {
                "midi": 56,
                "name": "G#3",
                "vel": 72
            }
        ]
    },
    {
        "time": 5.923,
        "notes": [
            {
                "midi": 45,
                "name": "A2",
                "vel": 82
            },
            {
                "midi": 52,
                "name": "E3",
                "vel": 61
            }
        ]
    },
    {
        "time": 6.239,
        "notes": [
            {
                "midi": 45,
                "name": "A2",
                "vel": 84
            },
            {
                "midi": 61,
                "name": "C#4",
                "vel": 76
            }
        ]
    },
    {
        "time": 6.541,
        "notes": [
            {
                "midi": 68,
                "name": "G#4",
                "vel": 38
            }
        ]
    },
    {
        "time": 6.564,
        "notes": [
            {
                "midi": 56,
                "name": "G#3",
                "vel": 83
            }
        ]
    },
    {
        "time": 6.575,
        "notes": [
            {
                "midi": 49,
                "name": "C#3",
                "vel": 49
            }
        ]
    },
    {
        "time": 6.877,
        "notes": [
            {
                "midi": 64,
                "name": "E4",
                "vel": 40
            },
            {
                "midi": 52,
                "name": "E3",
                "vel": 54
            },
            {
                "midi": 45,
                "name": "A2",
                "vel": 75
            }
        ]
    },
    {
        "time": 7.191,
        "notes": [
            {
                "midi": 61,
                "name": "C#4",
                "vel": 75
            }
        ]
    },
    {
        "time": 7.493,
        "notes": [
            {
                "midi": 56,
                "name": "G#3",
                "vel": 85
            }
        ]
    },
    {
        "time": 7.793,
        "notes": [
            {
                "midi": 52,
                "name": "E3",
                "vel": 62
            }
        ]
    },
    {
        "time": 8.075,
        "notes": [
            {
                "midi": 54,
                "name": "F#3",
                "vel": 56
            }
        ]
    },
    {
        "time": 8.109,
        "notes": [
            {
                "midi": 37,
                "name": "C#2",
                "vel": 39
            }
        ]
    },
    {
        "time": 8.12,
        "notes": [
            {
                "midi": 42,
                "name": "F#2",
                "vel": 47
            }
        ]
    },
    {
        "time": 8.155,
        "notes": [
            {
                "midi": 49,
                "name": "C#3",
                "vel": 94
            }
        ]
    },
    {
        "time": 8.434,
        "notes": [
            {
                "midi": 56,
                "name": "G#3",
                "vel": 65
            }
        ]
    },
    {
        "time": 8.759,
        "notes": [
            {
                "midi": 59,
                "name": "B3",
                "vel": 83
            }
        ]
    },
    {
        "time": 8.793,
        "notes": [
            {
                "midi": 49,
                "name": "C#3",
                "vel": 61
            }
        ]
    },
    {
        "time": 9.084,
        "notes": [
            {
                "midi": 64,
                "name": "E4",
                "vel": 89
            }
        ]
    },
    {
        "time": 9.398,
        "notes": [
            {
                "midi": 59,
                "name": "B3",
                "vel": 89
            }
        ]
    },
    {
        "time": 9.573,
        "notes": [
            {
                "midi": 68,
                "name": "G#4",
                "vel": 39
            }
        ]
    },
    {
        "time": 9.689,
        "notes": [
            {
                "midi": 56,
                "name": "G#3",
                "vel": 67
            }
        ]
    },
    {
        "time": 9.991,
        "notes": [
            {
                "midi": 64,
                "name": "E4",
                "vel": 95
            }
        ]
    },
    {
        "time": 10.155,
        "notes": [
            {
                "midi": 68,
                "name": "G#4",
                "vel": 46
            }
        ]
    },
    {
        "time": 10.211,
        "notes": [
            {
                "midi": 76,
                "name": "E5",
                "vel": 39
            }
        ]
    },
    {
        "time": 10.305,
        "notes": [
            {
                "midi": 59,
                "name": "B3",
                "vel": 89
            }
        ]
    },
    {
        "time": 10.584,
        "notes": [
            {
                "midi": 56,
                "name": "G#3",
                "vel": 73
            }
        ]
    },
    {
        "time": 10.955,
        "notes": [
            {
                "midi": 64,
                "name": "E4",
                "vel": 72
            }
        ]
    },
    {
        "time": 11.257,
        "notes": [
            {
                "midi": 56,
                "name": "G#3",
                "vel": 51
            },
            {
                "midi": 59,
                "name": "B3",
                "vel": 65
            }
        ]
    },
    {
        "time": 11.559,
        "notes": [
            {
                "midi": 56,
                "name": "G#3",
                "vel": 60
            }
        ]
    },
    {
        "time": 11.639,
        "notes": [
            {
                "midi": 37,
                "name": "C#2",
                "vel": 49
            }
        ]
    },
    {
        "time": 11.732,
        "notes": [
            {
                "midi": 40,
                "name": "E2",
                "vel": 44
            }
        ]
    },
    {
        "time": 11.884,
        "notes": [
            {
                "midi": 37,
                "name": "C#2",
                "vel": 59
            },
            {
                "midi": 49,
                "name": "C#3",
                "vel": 75
            }
        ]
    },
    {
        "time": 12.198,
        "notes": [
            {
                "midi": 56,
                "name": "G#3",
                "vel": 67
            }
        ]
    },
    {
        "time": 12.477,
        "notes": [
            {
                "midi": 68,
                "name": "G#4",
                "vel": 43
            }
        ]
    },
    {
        "time": 12.5,
        "notes": [
            {
                "midi": 59,
                "name": "B3",
                "vel": 75
            }
        ]
    },
    {
        "time": 12.814,
        "notes": [
            {
                "midi": 63,
                "name": "D#4",
                "vel": 78
            }
        ]
    },
    {
        "time": 13.127,
        "notes": [
            {
                "midi": 71,
                "name": "B4",
                "vel": 40
            },
            {
                "midi": 49,
                "name": "C#3",
                "vel": 56
            },
            {
                "midi": 59,
                "name": "B3",
                "vel": 81
            }
        ]
    },
    {
        "time": 13.43,
        "notes": [
            {
                "midi": 44,
                "name": "G#2",
                "vel": 60
            },
            {
                "midi": 56,
                "name": "G#3",
                "vel": 70
            }
        ]
    },
    {
        "time": 13.743,
        "notes": [
            {
                "midi": 76,
                "name": "E5",
                "vel": 45
            }
        ]
    },
    {
        "time": 13.755,
        "notes": [
            {
                "midi": 64,
                "name": "E4",
                "vel": 92
            }
        ]
    },
    {
        "time": 13.777,
        "notes": [
            {
                "midi": 40,
                "name": "E2",
                "vel": 53
            }
        ]
    },
    {
        "time": 14.045,
        "notes": [
            {
                "midi": 49,
                "name": "C#3",
                "vel": 50
            }
        ]
    },
    {
        "time": 14.057,
        "notes": [
            {
                "midi": 59,
                "name": "B3",
                "vel": 87
            }
        ]
    },
    {
        "time": 14.695,
        "notes": [
            {
                "midi": 64,
                "name": "E4",
                "vel": 82
            }
        ]
    },
    {
        "time": 15.009,
        "notes": [
            {
                "midi": 59,
                "name": "B3",
                "vel": 86
            }
        ]
    },
    {
        "time": 15.323,
        "notes": [
            {
                "midi": 56,
                "name": "G#3",
                "vel": 63
            }
        ]
    },
    {
        "time": 15.602,
        "notes": [
            {
                "midi": 64,
                "name": "E4",
                "vel": 50
            }
        ]
    },
    {
        "time": 15.648,
        "notes": [
            {
                "midi": 45,
                "name": "A2",
                "vel": 97
            }
        ]
    },
    {
        "time": 15.939,
        "notes": [
            {
                "midi": 57,
                "name": "A3",
                "vel": 42
            }
        ]
    },
    {
        "time": 15.961,
        "notes": [
            {
                "midi": 52,
                "name": "E3",
                "vel": 50
            }
        ]
    },
    {
        "time": 16.195,
        "notes": [
            {
                "midi": 64,
                "name": "E4",
                "vel": 41
            }
        ]
    },
    {
        "time": 16.252,
        "notes": [
            {
                "midi": 56,
                "name": "G#3",
                "vel": 54
            }
        ]
    },
    {
        "time": 16.589,
        "notes": [
            {
                "midi": 61,
                "name": "C#4",
                "vel": 61
            }
        ]
    },
    {
        "time": 16.88,
        "notes": [
            {
                "midi": 56,
                "name": "G#3",
                "vel": 75
            }
        ]
    },
    {
        "time": 17.182,
        "notes": [
            {
                "midi": 52,
                "name": "E3",
                "vel": 59
            }
        ]
    },
    {
        "time": 17.391,
        "notes": [
            {
                "midi": 45,
                "name": "A2",
                "vel": 71
            }
        ]
    },
    {
        "time": 17.495,
        "notes": [
            {
                "midi": 61,
                "name": "C#4",
                "vel": 63
            }
        ]
    },
    {
        "time": 17.541,
        "notes": [
            {
                "midi": 45,
                "name": "A2",
                "vel": 87
            }
        ]
    },
    {
        "time": 17.564,
        "notes": [
            {
                "midi": 49,
                "name": "C#3",
                "vel": 41
            }
        ]
    },
    {
        "time": 17.589,
        "notes": [
            {
                "midi": 33,
                "name": "A1",
                "vel": 44
            }
        ]
    },
    {
        "time": 17.809,
        "notes": [
            {
                "midi": 56,
                "name": "G#3",
                "vel": 62
            }
        ]
    },
    {
        "time": 17.82,
        "notes": [
            {
                "midi": 45,
                "name": "A2",
                "vel": 88
            }
        ]
    },
    {
        "time": 18.077,
        "notes": [
            {
                "midi": 64,
                "name": "E4",
                "vel": 44
            }
        ]
    },
    {
        "time": 18.123,
        "notes": [
            {
                "midi": 52,
                "name": "E3",
                "vel": 61
            }
        ]
    },
    {
        "time": 18.134,
        "notes": [
            {
                "midi": 45,
                "name": "A2",
                "vel": 80
            }
        ]
    },
    {
        "time": 18.425,
        "notes": [
            {
                "midi": 45,
                "name": "A2",
                "vel": 72
            },
            {
                "midi": 61,
                "name": "C#4",
                "vel": 62
            }
        ]
    },
    {
        "time": 18.739,
        "notes": [
            {
                "midi": 56,
                "name": "G#3",
                "vel": 59
            }
        ]
    },
    {
        "time": 19.343,
        "notes": [
            {
                "midi": 33,
                "name": "A1",
                "vel": 46
            }
        ]
    },
    {
        "time": 19.355,
        "notes": [
            {
                "midi": 69,
                "name": "A4",
                "vel": 47
            },
            {
                "midi": 45,
                "name": "A2",
                "vel": 94
            }
        ]
    },
    {
        "time": 19.655,
        "notes": [
            {
                "midi": 64,
                "name": "E4",
                "vel": 42
            }
        ]
    },
    {
        "time": 19.68,
        "notes": [
            {
                "midi": 52,
                "name": "E3",
                "vel": 55
            }
        ]
    },
    {
        "time": 19.993,
        "notes": [
            {
                "midi": 56,
                "name": "G#3",
                "vel": 68
            }
        ]
    },
    {
        "time": 20.307,
        "notes": [
            {
                "midi": 61,
                "name": "C#4",
                "vel": 66
            }
        ]
    },
    {
        "time": 20.62,
        "notes": [
            {
                "midi": 56,
                "name": "G#3",
                "vel": 76
            }
        ]
    },
    {
        "time": 20.923,
        "notes": [
            {
                "midi": 52,
                "name": "E3",
                "vel": 60
            }
        ]
    },
    {
        "time": 21.236,
        "notes": [
            {
                "midi": 45,
                "name": "A2",
                "vel": 89
            },
            {
                "midi": 61,
                "name": "C#4",
                "vel": 73
            }
        ]
    },
    {
        "time": 21.55,
        "notes": [
            {
                "midi": 56,
                "name": "G#3",
                "vel": 73
            }
        ]
    },
    {
        "time": 21.561,
        "notes": [
            {
                "midi": 45,
                "name": "A2",
                "vel": 85
            }
        ]
    },
    {
        "time": 21.793,
        "notes": [
            {
                "midi": 45,
                "name": "A2",
                "vel": 75
            }
        ]
    },
    {
        "time": 21.934,
        "notes": [
            {
                "midi": 45,
                "name": "A2",
                "vel": 70
            }
        ]
    },
    {
        "time": 22.155,
        "notes": [
            {
                "midi": 52,
                "name": "E3",
                "vel": 49
            }
        ]
    },
    {
        "time": 22.166,
        "notes": [
            {
                "midi": 45,
                "name": "A2",
                "vel": 63
            }
        ]
    },
    {
        "time": 22.189,
        "notes": [
            {
                "midi": 61,
                "name": "C#4",
                "vel": 58
            }
        ]
    },
    {
        "time": 22.48,
        "notes": [
            {
                "midi": 33,
                "name": "A1",
                "vel": 45
            }
        ]
    },
    {
        "time": 22.502,
        "notes": [
            {
                "midi": 56,
                "name": "G#3",
                "vel": 72
            }
        ]
    },
    {
        "time": 22.805,
        "notes": [
            {
                "midi": 52,
                "name": "E3",
                "vel": 54
            }
        ]
    },
    {
        "time": 23.107,
        "notes": [
            {
                "midi": 42,
                "name": "F#2",
                "vel": 60
            }
        ]
    },
    {
        "time": 23.118,
        "notes": [
            {
                "midi": 49,
                "name": "C#3",
                "vel": 91
            }
        ]
    },
    {
        "time": 23.13,
        "notes": [
            {
                "midi": 61,
                "name": "C#4",
                "vel": 45
            }
        ]
    },
    {
        "time": 23.455,
        "notes": [
            {
                "midi": 56,
                "name": "G#3",
                "vel": 46
            }
        ]
    },
    {
        "time": 23.536,
        "notes": [
            {
                "midi": 37,
                "name": "C#2",
                "vel": 40
            }
        ]
    },
    {
        "time": 23.723,
        "notes": [
            {
                "midi": 76,
                "name": "E5",
                "vel": 82
            }
        ]
    },
    {
        "time": 23.734,
        "notes": [
            {
                "midi": 68,
                "name": "G#4",
                "vel": 57
            }
        ]
    },
    {
        "time": 23.745,
        "notes": [
            {
                "midi": 59,
                "name": "B3",
                "vel": 59
            },
            {
                "midi": 49,
                "name": "C#3",
                "vel": 61
            }
        ]
    },
    {
        "time": 24.059,
        "notes": [
            {
                "midi": 64,
                "name": "E4",
                "vel": 79
            }
        ]
    },
    {
        "time": 24.373,
        "notes": [
            {
                "midi": 59,
                "name": "B3",
                "vel": 85
            }
        ]
    },
    {
        "time": 24.675,
        "notes": [
            {
                "midi": 56,
                "name": "G#3",
                "vel": 68
            }
        ]
    },
    {
        "time": 24.989,
        "notes": [
            {
                "midi": 59,
                "name": "B3",
                "vel": 59
            }
        ]
    },
    {
        "time": 25.0,
        "notes": [
            {
                "midi": 52,
                "name": "E3",
                "vel": 45
            },
            {
                "midi": 71,
                "name": "B4",
                "vel": 43
            },
            {
                "midi": 64,
                "name": "E4",
                "vel": 90
            }
        ]
    },
    {
        "time": 25.325,
        "notes": [
            {
                "midi": 59,
                "name": "B3",
                "vel": 82
            }
        ]
    },
    {
        "time": 25.336,
        "notes": [
            {
                "midi": 40,
                "name": "E2",
                "vel": 47
            }
        ]
    },
    {
        "time": 25.627,
        "notes": [
            {
                "midi": 56,
                "name": "G#3",
                "vel": 58
            }
        ]
    },
    {
        "time": 25.952,
        "notes": [
            {
                "midi": 64,
                "name": "E4",
                "vel": 94
            }
        ]
    },
    {
        "time": 26.255,
        "notes": [
            {
                "midi": 40,
                "name": "E2",
                "vel": 49
            },
            {
                "midi": 59,
                "name": "B3",
                "vel": 78
            }
        ]
    },
    {
        "time": 26.65,
        "notes": [
            {
                "midi": 40,
                "name": "E2",
                "vel": 46
            }
        ]
    },
    {
        "time": 26.859,
        "notes": [
            {
                "midi": 63,
                "name": "D#4",
                "vel": 55
            }
        ]
    },
    {
        "time": 26.87,
        "notes": [
            {
                "midi": 49,
                "name": "C#3",
                "vel": 64
            }
        ]
    },
    {
        "time": 26.882,
        "notes": [
            {
                "midi": 37,
                "name": "C#2",
                "vel": 60
            }
        ]
    },
    {
        "time": 26.893,
        "notes": [
            {
                "midi": 71,
                "name": "B4",
                "vel": 41
            }
        ]
    },
    {
        "time": 27.173,
        "notes": [
            {
                "midi": 56,
                "name": "G#3",
                "vel": 68
            }
        ]
    },
    {
        "time": 27.486,
        "notes": [
            {
                "midi": 59,
                "name": "B3",
                "vel": 78
            }
        ]
    },
    {
        "time": 27.882,
        "notes": [
            {
                "midi": 64,
                "name": "E4",
                "vel": 79
            }
        ]
    },
    {
        "time": 28.114,
        "notes": [
            {
                "midi": 59,
                "name": "B3",
                "vel": 81
            }
        ]
    },
    {
        "time": 28.416,
        "notes": [
            {
                "midi": 68,
                "name": "G#4",
                "vel": 45
            },
            {
                "midi": 56,
                "name": "G#3",
                "vel": 78
            }
        ]
    },
    {
        "time": 28.741,
        "notes": [
            {
                "midi": 64,
                "name": "E4",
                "vel": 89
            }
        ]
    },
    {
        "time": 28.752,
        "notes": [
            {
                "midi": 49,
                "name": "C#3",
                "vel": 53
            },
            {
                "midi": 56,
                "name": "G#3",
                "vel": 57
            }
        ]
    },
    {
        "time": 29.066,
        "notes": [
            {
                "midi": 59,
                "name": "B3",
                "vel": 86
            }
        ]
    },
    {
        "time": 29.114,
        "notes": [
            {
                "midi": 49,
                "name": "C#3",
                "vel": 42
            }
        ]
    },
    {
        "time": 29.357,
        "notes": [
            {
                "midi": 56,
                "name": "G#3",
                "vel": 58
            }
        ]
    },
    {
        "time": 29.705,
        "notes": [
            {
                "midi": 64,
                "name": "E4",
                "vel": 83
            }
        ]
    },
    {
        "time": 29.984,
        "notes": [
            {
                "midi": 59,
                "name": "B3",
                "vel": 71
            }
        ]
    },
    {
        "time": 30.332,
        "notes": [
            {
                "midi": 64,
                "name": "E4",
                "vel": 57
            },
            {
                "midi": 76,
                "name": "E5",
                "vel": 69
            }
        ]
    },
    {
        "time": 30.634,
        "notes": [
            {
                "midi": 45,
                "name": "A2",
                "vel": 90
            }
        ]
    },
    {
        "time": 30.645,
        "notes": [
            {
                "midi": 57,
                "name": "A3",
                "vel": 40
            }
        ]
    },
    {
        "time": 30.925,
        "notes": [
            {
                "midi": 57,
                "name": "A3",
                "vel": 41
            },
            {
                "midi": 75,
                "name": "D#5",
                "vel": 62
            }
        ]
    },
    {
        "time": 30.936,
        "notes": [
            {
                "midi": 45,
                "name": "A2",
                "vel": 81
            }
        ]
    },
    {
        "time": 31.052,
        "notes": [
            {
                "midi": 52,
                "name": "E3",
                "vel": 47
            }
        ]
    },
    {
        "time": 31.168,
        "notes": [
            {
                "midi": 33,
                "name": "A1",
                "vel": 41
            }
        ]
    },
    {
        "time": 31.239,
        "notes": [
            {
                "midi": 45,
                "name": "A2",
                "vel": 78
            }
        ]
    },
    {
        "time": 31.25,
        "notes": [
            {
                "midi": 52,
                "name": "E3",
                "vel": 61
            },
            {
                "midi": 56,
                "name": "G#3",
                "vel": 60
            },
            {
                "midi": 71,
                "name": "B4",
                "vel": 66
            }
        ]
    },
    {
        "time": 31.377,
        "notes": [
            {
                "midi": 45,
                "name": "A2",
                "vel": 72
            }
        ]
    },
    {
        "time": 31.552,
        "notes": [
            {
                "midi": 66,
                "name": "F#4",
                "vel": 65
            }
        ]
    },
    {
        "time": 31.564,
        "notes": [
            {
                "midi": 61,
                "name": "C#4",
                "vel": 54
            }
        ]
    },
    {
        "time": 31.575,
        "notes": [
            {
                "midi": 33,
                "name": "A1",
                "vel": 42
            }
        ]
    },
    {
        "time": 31.691,
        "notes": [
            {
                "midi": 56,
                "name": "G#3",
                "vel": 54
            },
            {
                "midi": 52,
                "name": "E3",
                "vel": 47
            }
        ]
    },
    {
        "time": 32.18,
        "notes": [
            {
                "midi": 64,
                "name": "E4",
                "vel": 45
            }
        ]
    },
    {
        "time": 32.493,
        "notes": [
            {
                "midi": 45,
                "name": "A2",
                "vel": 73
            },
            {
                "midi": 61,
                "name": "C#4",
                "vel": 51
            }
        ]
    },
    {
        "time": 32.795,
        "notes": [
            {
                "midi": 45,
                "name": "A2",
                "vel": 72
            }
        ]
    },
    {
        "time": 32.807,
        "notes": [
            {
                "midi": 56,
                "name": "G#3",
                "vel": 67
            }
        ]
    },
    {
        "time": 33.109,
        "notes": [
            {
                "midi": 45,
                "name": "A2",
                "vel": 71
            },
            {
                "midi": 64,
                "name": "E4",
                "vel": 49
            },
            {
                "midi": 52,
                "name": "E3",
                "vel": 58
            }
        ]
    },
    {
        "time": 33.423,
        "notes": [
            {
                "midi": 45,
                "name": "A2",
                "vel": 68
            }
        ]
    },
    {
        "time": 33.434,
        "notes": [
            {
                "midi": 49,
                "name": "C#3",
                "vel": 51
            },
            {
                "midi": 61,
                "name": "C#4",
                "vel": 57
            }
        ]
    },
    {
        "time": 33.736,
        "notes": [
            {
                "midi": 45,
                "name": "A2",
                "vel": 61
            }
        ]
    },
    {
        "time": 33.748,
        "notes": [
            {
                "midi": 56,
                "name": "G#3",
                "vel": 57
            }
        ]
    },
    {
        "time": 34.039,
        "notes": [
            {
                "midi": 64,
                "name": "E4",
                "vel": 62
            }
        ]
    },
    {
        "time": 34.05,
        "notes": [
            {
                "midi": 49,
                "name": "C#3",
                "vel": 53
            },
            {
                "midi": 52,
                "name": "E3",
                "vel": 48
            }
        ]
    },
    {
        "time": 34.352,
        "notes": [
            {
                "midi": 45,
                "name": "A2",
                "vel": 95
            }
        ]
    },
    {
        "time": 34.4,
        "notes": [
            {
                "midi": 33,
                "name": "A1",
                "vel": 42
            }
        ]
    },
    {
        "time": 34.643,
        "notes": [
            {
                "midi": 64,
                "name": "E4",
                "vel": 43
            }
        ]
    },
    {
        "time": 34.677,
        "notes": [
            {
                "midi": 52,
                "name": "E3",
                "vel": 57
            }
        ]
    },
    {
        "time": 35.282,
        "notes": [
            {
                "midi": 61,
                "name": "C#4",
                "vel": 66
            }
        ]
    },
    {
        "time": 35.618,
        "notes": [
            {
                "midi": 56,
                "name": "G#3",
                "vel": 69
            }
        ]
    },
    {
        "time": 35.864,
        "notes": [
            {
                "midi": 64,
                "name": "E4",
                "vel": 42
            }
        ]
    },
    {
        "time": 35.898,
        "notes": [
            {
                "midi": 52,
                "name": "E3",
                "vel": 53
            }
        ]
    },
    {
        "time": 36.223,
        "notes": [
            {
                "midi": 49,
                "name": "C#3",
                "vel": 39
            }
        ]
    },
    {
        "time": 36.234,
        "notes": [
            {
                "midi": 45,
                "name": "A2",
                "vel": 90
            },
            {
                "midi": 61,
                "name": "C#4",
                "vel": 63
            }
        ]
    },
    {
        "time": 36.559,
        "notes": [
            {
                "midi": 45,
                "name": "A2",
                "vel": 83
            },
            {
                "midi": 56,
                "name": "G#3",
                "vel": 72
            }
        ]
    },
    {
        "time": 36.805,
        "notes": [
            {
                "midi": 45,
                "name": "A2",
                "vel": 69
            }
        ]
    },
    {
        "time": 36.85,
        "notes": [
            {
                "midi": 64,
                "name": "E4",
                "vel": 40
            },
            {
                "midi": 52,
                "name": "E3",
                "vel": 63
            }
        ]
    },
    {
        "time": 37.186,
        "notes": [
            {
                "midi": 45,
                "name": "A2",
                "vel": 73
            }
        ]
    },
    {
        "time": 37.198,
        "notes": [
            {
                "midi": 61,
                "name": "C#4",
                "vel": 70
            }
        ]
    },
    {
        "time": 37.477,
        "notes": [
            {
                "midi": 45,
                "name": "A2",
                "vel": 58
            }
        ]
    },
    {
        "time": 37.489,
        "notes": [
            {
                "midi": 52,
                "name": "E3",
                "vel": 35
            },
            {
                "midi": 76,
                "name": "E5",
                "vel": 58
            },
            {
                "midi": 83,
                "name": "B5",
                "vel": 51
            },
            {
                "midi": 64,
                "name": "E4",
                "vel": 66
            }
        ]
    },
    {
        "time": 37.5,
        "notes": [
            {
                "midi": 56,
                "name": "G#3",
                "vel": 49
            }
        ]
    },
    {
        "time": 37.802,
        "notes": [
            {
                "midi": 85,
                "name": "C#6",
                "vel": 48
            }
        ]
    },
    {
        "time": 37.816,
        "notes": [
            {
                "midi": 52,
                "name": "E3",
                "vel": 53
            }
        ]
    },
    {
        "time": 38.093,
        "notes": [
            {
                "midi": 87,
                "name": "D#6",
                "vel": 53
            }
        ]
    },
    {
        "time": 38.164,
        "notes": [
            {
                "midi": 83,
                "name": "B5",
                "vel": 50
            }
        ]
    },
    {
        "time": 38.175,
        "notes": [
            {
                "midi": 49,
                "name": "C#3",
                "vel": 76
            }
        ]
    },
    {
        "time": 38.466,
        "notes": [
            {
                "midi": 56,
                "name": "G#3",
                "vel": 49
            }
        ]
    },
    {
        "time": 38.477,
        "notes": [
            {
                "midi": 37,
                "name": "C#2",
                "vel": 51
            }
        ]
    },
    {
        "time": 38.732,
        "notes": [
            {
                "midi": 88,
                "name": "E6",
                "vel": 53
            },
            {
                "midi": 76,
                "name": "E5",
                "vel": 62
            }
        ]
    },
    {
        "time": 38.743,
        "notes": [
            {
                "midi": 59,
                "name": "B3",
                "vel": 59
            }
        ]
    },
    {
        "time": 39.034,
        "notes": [
            {
                "midi": 64,
                "name": "E4",
                "vel": 84
            }
        ]
    },
    {
        "time": 39.37,
        "notes": [
            {
                "midi": 37,
                "name": "C#2",
                "vel": 47
            },
            {
                "midi": 59,
                "name": "B3",
                "vel": 68
            },
            {
                "midi": 49,
                "name": "C#3",
                "vel": 51
            }
        ]
    },
    {
        "time": 39.382,
        "notes": [
            {
                "midi": 64,
                "name": "E4",
                "vel": 82
            }
        ]
    },
    {
        "time": 39.964,
        "notes": [
            {
                "midi": 64,
                "name": "E4",
                "vel": 91
            }
        ]
    },
    {
        "time": 40.277,
        "notes": [
            {
                "midi": 59,
                "name": "B3",
                "vel": 76
            }
        ]
    },
    {
        "time": 40.568,
        "notes": [
            {
                "midi": 56,
                "name": "G#3",
                "vel": 60
            }
        ]
    },
    {
        "time": 40.893,
        "notes": [
            {
                "midi": 64,
                "name": "E4",
                "vel": 89
            }
        ]
    },
    {
        "time": 41.207,
        "notes": [
            {
                "midi": 59,
                "name": "B3",
                "vel": 80
            }
        ]
    },
    {
        "time": 41.252,
        "notes": [
            {
                "midi": 49,
                "name": "C#3",
                "vel": 47
            }
        ]
    },
    {
        "time": 41.52,
        "notes": [
            {
                "midi": 56,
                "name": "G#3",
                "vel": 54
            }
        ]
    },
    {
        "time": 41.845,
        "notes": [
            {
                "midi": 63,
                "name": "D#4",
                "vel": 69
            }
        ]
    },
    {
        "time": 41.857,
        "notes": [
            {
                "midi": 73,
                "name": "C#5",
                "vel": 48
            }
        ]
    },
    {
        "time": 41.87,
        "notes": [
            {
                "midi": 37,
                "name": "C#2",
                "vel": 51
            },
            {
                "midi": 49,
                "name": "C#3",
                "vel": 81
            }
        ]
    },
    {
        "time": 41.893,
        "notes": [
            {
                "midi": 35,
                "name": "B1",
                "vel": 48
            }
        ]
    },
    {
        "time": 42.032,
        "notes": [
            {
                "midi": 59,
                "name": "B3",
                "vel": 54
            }
        ]
    },
    {
        "time": 42.136,
        "notes": [
            {
                "midi": 56,
                "name": "G#3",
                "vel": 55
            }
        ]
    },
    {
        "time": 42.461,
        "notes": [
            {
                "midi": 59,
                "name": "B3",
                "vel": 65
            }
        ]
    },
    {
        "time": 42.798,
        "notes": [
            {
                "midi": 63,
                "name": "D#4",
                "vel": 75
            }
        ]
    },
    {
        "time": 42.809,
        "notes": [
            {
                "midi": 49,
                "name": "C#3",
                "vel": 60
            }
        ]
    },
    {
        "time": 43.1,
        "notes": [
            {
                "midi": 59,
                "name": "B3",
                "vel": 79
            }
        ]
    },
    {
        "time": 43.402,
        "notes": [
            {
                "midi": 44,
                "name": "G#2",
                "vel": 51
            }
        ]
    },
    {
        "time": 43.414,
        "notes": [
            {
                "midi": 56,
                "name": "G#3",
                "vel": 77
            }
        ]
    },
    {
        "time": 43.741,
        "notes": [
            {
                "midi": 56,
                "name": "G#3",
                "vel": 42
            }
        ]
    },
    {
        "time": 43.752,
        "notes": [
            {
                "midi": 78,
                "name": "F#5",
                "vel": 42
            },
            {
                "midi": 59,
                "name": "B3",
                "vel": 67
            },
            {
                "midi": 64,
                "name": "E4",
                "vel": 66
            }
        ]
    },
    {
        "time": 44.052,
        "notes": [
            {
                "midi": 59,
                "name": "B3",
                "vel": 81
            }
        ]
    },
    {
        "time": 44.366,
        "notes": [
            {
                "midi": 80,
                "name": "G#5",
                "vel": 61
            }
        ]
    },
    {
        "time": 44.377,
        "notes": [
            {
                "midi": 64,
                "name": "E4",
                "vel": 59
            },
            {
                "midi": 59,
                "name": "B3",
                "vel": 59
            }
        ]
    },
    {
        "time": 44.68,
        "notes": [
            {
                "midi": 64,
                "name": "E4",
                "vel": 62
            }
        ]
    },
    {
        "time": 44.982,
        "notes": [
            {
                "midi": 81,
                "name": "A5",
                "vel": 73
            }
        ]
    },
    {
        "time": 44.993,
        "notes": [
            {
                "midi": 59,
                "name": "B3",
                "vel": 59
            }
        ]
    },
    {
        "time": 45.134,
        "notes": [
            {
                "midi": 64,
                "name": "E4",
                "vel": 41
            }
        ]
    },
    {
        "time": 45.284,
        "notes": [
            {
                "midi": 56,
                "name": "G#3",
                "vel": 57
            }
        ]
    },
    {
        "time": 45.598,
        "notes": [
            {
                "midi": 64,
                "name": "E4",
                "vel": 40
            },
            {
                "midi": 76,
                "name": "E5",
                "vel": 60
            }
        ]
    },
    {
        "time": 45.609,
        "notes": [
            {
                "midi": 45,
                "name": "A2",
                "vel": 91
            }
        ]
    },
    {
        "time": 45.643,
        "notes": [
            {
                "midi": 83,
                "name": "B5",
                "vel": 56
            }
        ]
    },
    {
        "time": 45.9,
        "notes": [
            {
                "midi": 64,
                "name": "E4",
                "vel": 47
            }
        ]
    },
    {
        "time": 45.936,
        "notes": [
            {
                "midi": 52,
                "name": "E3",
                "vel": 52
            }
        ]
    },
    {
        "time": 45.948,
        "notes": [
            {
                "midi": 45,
                "name": "A2",
                "vel": 97
            }
        ]
    },
    {
        "time": 46.248,
        "notes": [
            {
                "midi": 56,
                "name": "G#3",
                "vel": 43
            }
        ]
    },
    {
        "time": 46.561,
        "notes": [
            {
                "midi": 61,
                "name": "C#4",
                "vel": 60
            }
        ]
    },
    {
        "time": 46.864,
        "notes": [
            {
                "midi": 56,
                "name": "G#3",
                "vel": 71
            }
        ]
    },
    {
        "time": 47.12,
        "notes": [
            {
                "midi": 64,
                "name": "E4",
                "vel": 47
            }
        ]
    },
    {
        "time": 47.132,
        "notes": [
            {
                "midi": 45,
                "name": "A2",
                "vel": 86
            }
        ]
    },
    {
        "time": 47.155,
        "notes": [
            {
                "midi": 52,
                "name": "E3",
                "vel": 64
            }
        ]
    },
    {
        "time": 47.352,
        "notes": [
            {
                "midi": 45,
                "name": "A2",
                "vel": 70
            }
        ]
    },
    {
        "time": 47.491,
        "notes": [
            {
                "midi": 52,
                "name": "E3",
                "vel": 49
            }
        ]
    },
    {
        "time": 47.502,
        "notes": [
            {
                "midi": 64,
                "name": "E4",
                "vel": 51
            },
            {
                "midi": 61,
                "name": "C#4",
                "vel": 61
            }
        ]
    },
    {
        "time": 47.514,
        "notes": [
            {
                "midi": 45,
                "name": "A2",
                "vel": 92
            }
        ]
    },
    {
        "time": 47.818,
        "notes": [
            {
                "midi": 45,
                "name": "A2",
                "vel": 88
            },
            {
                "midi": 56,
                "name": "G#3",
                "vel": 65
            }
        ]
    },
    {
        "time": 47.934,
        "notes": [
            {
                "midi": 52,
                "name": "E3",
                "vel": 45
            },
            {
                "midi": 64,
                "name": "E4",
                "vel": 46
            }
        ]
    },
    {
        "time": 48.095,
        "notes": [
            {
                "midi": 52,
                "name": "E3",
                "vel": 70
            }
        ]
    },
    {
        "time": 48.107,
        "notes": [
            {
                "midi": 45,
                "name": "A2",
                "vel": 74
            },
            {
                "midi": 64,
                "name": "E4",
                "vel": 43
            }
        ]
    },
    {
        "time": 48.409,
        "notes": [
            {
                "midi": 45,
                "name": "A2",
                "vel": 77
            },
            {
                "midi": 61,
                "name": "C#4",
                "vel": 72
            }
        ]
    },
    {
        "time": 48.711,
        "notes": [
            {
                "midi": 49,
                "name": "C#3",
                "vel": 51
            }
        ]
    },
    {
        "time": 48.734,
        "notes": [
            {
                "midi": 56,
                "name": "G#3",
                "vel": 77
            }
        ]
    },
    {
        "time": 48.98,
        "notes": [
            {
                "midi": 68,
                "name": "G#4",
                "vel": 37
            }
        ]
    },
    {
        "time": 49.048,
        "notes": [
            {
                "midi": 52,
                "name": "E3",
                "vel": 71
            }
        ]
    },
    {
        "time": 49.059,
        "notes": [
            {
                "midi": 45,
                "name": "A2",
                "vel": 58
            }
        ]
    },
    {
        "time": 49.373,
        "notes": [
            {
                "midi": 76,
                "name": "E5",
                "vel": 54
            }
        ]
    },
    {
        "time": 49.384,
        "notes": [
            {
                "midi": 45,
                "name": "A2",
                "vel": 82
            },
            {
                "midi": 59,
                "name": "B3",
                "vel": 68
            }
        ]
    },
    {
        "time": 49.677,
        "notes": [
            {
                "midi": 61,
                "name": "C#4",
                "vel": 50
            },
            {
                "midi": 45,
                "name": "A2",
                "vel": 93
            }
        ]
    },
    {
        "time": 49.745,
        "notes": [
            {
                "midi": 52,
                "name": "E3",
                "vel": 48
            }
        ]
    },
    {
        "time": 49.977,
        "notes": [
            {
                "midi": 56,
                "name": "G#3",
                "vel": 57
            }
        ]
    },
    {
        "time": 50.059,
        "notes": [
            {
                "midi": 64,
                "name": "E4",
                "vel": 43
            }
        ]
    },
    {
        "time": 50.13,
        "notes": [
            {
                "midi": 52,
                "name": "E3",
                "vel": 44
            }
        ]
    },
    {
        "time": 50.302,
        "notes": [
            {
                "midi": 64,
                "name": "E4",
                "vel": 54
            }
        ]
    },
    {
        "time": 50.627,
        "notes": [
            {
                "midi": 56,
                "name": "G#3",
                "vel": 67
            }
        ]
    },
    {
        "time": 50.941,
        "notes": [
            {
                "midi": 61,
                "name": "C#4",
                "vel": 58
            }
        ]
    },
    {
        "time": 51.07,
        "notes": [
            {
                "midi": 45,
                "name": "A2",
                "vel": 81
            }
        ]
    },
    {
        "time": 51.28,
        "notes": [
            {
                "midi": 45,
                "name": "A2",
                "vel": 86
            },
            {
                "midi": 64,
                "name": "E4",
                "vel": 59
            }
        ]
    },
    {
        "time": 51.384,
        "notes": [
            {
                "midi": 76,
                "name": "E5",
                "vel": 45
            }
        ]
    },
    {
        "time": 51.591,
        "notes": [
            {
                "midi": 61,
                "name": "C#4",
                "vel": 75
            }
        ]
    },
    {
        "time": 51.605,
        "notes": [
            {
                "midi": 45,
                "name": "A2",
                "vel": 73
            }
        ]
    },
    {
        "time": 51.873,
        "notes": [
            {
                "midi": 56,
                "name": "G#3",
                "vel": 57
            }
        ]
    },
    {
        "time": 52.023,
        "notes": [
            {
                "midi": 61,
                "name": "C#4",
                "vel": 45
            }
        ]
    },
    {
        "time": 52.173,
        "notes": [
            {
                "midi": 45,
                "name": "A2",
                "vel": 81
            }
        ]
    },
    {
        "time": 52.186,
        "notes": [
            {
                "midi": 64,
                "name": "E4",
                "vel": 68
            }
        ]
    },
    {
        "time": 52.325,
        "notes": [
            {
                "midi": 61,
                "name": "C#4",
                "vel": 33
            }
        ]
    },
    {
        "time": 52.486,
        "notes": [
            {
                "midi": 45,
                "name": "A2",
                "vel": 79
            }
        ]
    },
    {
        "time": 52.534,
        "notes": [
            {
                "midi": 61,
                "name": "C#4",
                "vel": 63
            }
        ]
    },
    {
        "time": 52.602,
        "notes": [
            {
                "midi": 49,
                "name": "C#3",
                "vel": 47
            }
        ]
    },
    {
        "time": 52.825,
        "notes": [
            {
                "midi": 45,
                "name": "A2",
                "vel": 67
            }
        ]
    },
    {
        "time": 53.114,
        "notes": [
            {
                "midi": 78,
                "name": "F#5",
                "vel": 59
            }
        ]
    },
    {
        "time": 53.125,
        "notes": [
            {
                "midi": 68,
                "name": "G#4",
                "vel": 51
            },
            {
                "midi": 73,
                "name": "C#5",
                "vel": 58
            },
            {
                "midi": 49,
                "name": "C#3",
                "vel": 80
            }
        ]
    },
    {
        "time": 53.393,
        "notes": [
            {
                "midi": 37,
                "name": "C#2",
                "vel": 44
            }
        ]
    },
    {
        "time": 53.427,
        "notes": [
            {
                "midi": 56,
                "name": "G#3",
                "vel": 50
            }
        ]
    },
    {
        "time": 53.732,
        "notes": [
            {
                "midi": 59,
                "name": "B3",
                "vel": 62
            }
        ]
    },
    {
        "time": 54.02,
        "notes": [
            {
                "midi": 64,
                "name": "E4",
                "vel": 82
            }
        ]
    },
    {
        "time": 54.125,
        "notes": [
            {
                "midi": 37,
                "name": "C#2",
                "vel": 46
            }
        ]
    },
    {
        "time": 54.148,
        "notes": [
            {
                "midi": 73,
                "name": "C#5",
                "vel": 51
            }
        ]
    },
    {
        "time": 54.345,
        "notes": [
            {
                "midi": 59,
                "name": "B3",
                "vel": 80
            }
        ]
    },
    {
        "time": 54.45,
        "notes": [
            {
                "midi": 68,
                "name": "G#4",
                "vel": 43
            }
        ]
    },
    {
        "time": 54.648,
        "notes": [
            {
                "midi": 56,
                "name": "G#3",
                "vel": 50
            }
        ]
    },
    {
        "time": 54.707,
        "notes": [
            {
                "midi": 37,
                "name": "C#2",
                "vel": 55
            }
        ]
    },
    {
        "time": 54.905,
        "notes": [
            {
                "midi": 49,
                "name": "C#3",
                "vel": 40
            }
        ]
    },
    {
        "time": 54.973,
        "notes": [
            {
                "midi": 64,
                "name": "E4",
                "vel": 82
            }
        ]
    },
    {
        "time": 54.984,
        "notes": [
            {
                "midi": 68,
                "name": "G#4",
                "vel": 32
            },
            {
                "midi": 80,
                "name": "G#5",
                "vel": 49
            },
            {
                "midi": 61,
                "name": "C#4",
                "vel": 44
            }
        ]
    },
    {
        "time": 55.02,
        "notes": [
            {
                "midi": 73,
                "name": "C#5",
                "vel": 57
            }
        ]
    },
    {
        "time": 55.111,
        "notes": [
            {
                "midi": 49,
                "name": "C#3",
                "vel": 55
            }
        ]
    },
    {
        "time": 55.252,
        "notes": [
            {
                "midi": 37,
                "name": "C#2",
                "vel": 41
            },
            {
                "midi": 49,
                "name": "C#3",
                "vel": 62
            }
        ]
    },
    {
        "time": 55.286,
        "notes": [
            {
                "midi": 68,
                "name": "G#4",
                "vel": 44
            }
        ]
    },
    {
        "time": 55.298,
        "notes": [
            {
                "midi": 59,
                "name": "B3",
                "vel": 60
            }
        ]
    },
    {
        "time": 55.927,
        "notes": [
            {
                "midi": 64,
                "name": "E4",
                "vel": 80
            }
        ]
    },
    {
        "time": 56.089,
        "notes": [
            {
                "midi": 73,
                "name": "C#5",
                "vel": 49
            }
        ]
    },
    {
        "time": 56.241,
        "notes": [
            {
                "midi": 59,
                "name": "B3",
                "vel": 70
            }
        ]
    },
    {
        "time": 56.53,
        "notes": [
            {
                "midi": 56,
                "name": "G#3",
                "vel": 59
            }
        ]
    },
    {
        "time": 56.6,
        "notes": [
            {
                "midi": 68,
                "name": "G#4",
                "vel": 42
            }
        ]
    },
    {
        "time": 56.611,
        "notes": [
            {
                "midi": 37,
                "name": "C#2",
                "vel": 48
            }
        ]
    },
    {
        "time": 56.645,
        "notes": [
            {
                "midi": 40,
                "name": "E2",
                "vel": 46
            }
        ]
    },
    {
        "time": 56.832,
        "notes": [
            {
                "midi": 44,
                "name": "G#2",
                "vel": 56
            }
        ]
    },
    {
        "time": 56.843,
        "notes": [
            {
                "midi": 56,
                "name": "G#3",
                "vel": 57
            },
            {
                "midi": 63,
                "name": "D#4",
                "vel": 73
            }
        ]
    },
    {
        "time": 56.866,
        "notes": [
            {
                "midi": 49,
                "name": "C#3",
                "vel": 70
            }
        ]
    },
    {
        "time": 56.925,
        "notes": [
            {
                "midi": 37,
                "name": "C#2",
                "vel": 67
            }
        ]
    },
    {
        "time": 57.168,
        "notes": [
            {
                "midi": 56,
                "name": "G#3",
                "vel": 78
            }
        ]
    },
    {
        "time": 57.493,
        "notes": [
            {
                "midi": 59,
                "name": "B3",
                "vel": 74
            }
        ]
    },
    {
        "time": 57.809,
        "notes": [
            {
                "midi": 63,
                "name": "D#4",
                "vel": 83
            }
        ]
    },
    {
        "time": 58.123,
        "notes": [
            {
                "midi": 56,
                "name": "G#3",
                "vel": 66
            },
            {
                "midi": 59,
                "name": "B3",
                "vel": 86
            }
        ]
    },
    {
        "time": 58.423,
        "notes": [
            {
                "midi": 68,
                "name": "G#4",
                "vel": 41
            },
            {
                "midi": 56,
                "name": "G#3",
                "vel": 65
            }
        ]
    },
    {
        "time": 58.761,
        "notes": [
            {
                "midi": 64,
                "name": "E4",
                "vel": 84
            }
        ]
    },
    {
        "time": 58.841,
        "notes": [
            {
                "midi": 49,
                "name": "C#3",
                "vel": 40
            }
        ]
    },
    {
        "time": 59.075,
        "notes": [
            {
                "midi": 59,
                "name": "B3",
                "vel": 86
            }
        ]
    },
    {
        "time": 59.352,
        "notes": [
            {
                "midi": 68,
                "name": "G#4",
                "vel": 50
            }
        ]
    },
    {
        "time": 59.375,
        "notes": [
            {
                "midi": 56,
                "name": "G#3",
                "vel": 66
            }
        ]
    },
    {
        "time": 59.68,
        "notes": [
            {
                "midi": 73,
                "name": "C#5",
                "vel": 84
            },
            {
                "midi": 64,
                "name": "E4",
                "vel": 58
            }
        ]
    },
    {
        "time": 59.982,
        "notes": [
            {
                "midi": 75,
                "name": "D#5",
                "vel": 80
            }
        ]
    },
    {
        "time": 59.993,
        "notes": [
            {
                "midi": 59,
                "name": "B3",
                "vel": 56
            }
        ]
    },
    {
        "time": 60.293,
        "notes": [
            {
                "midi": 64,
                "name": "E4",
                "vel": 62
            },
            {
                "midi": 56,
                "name": "G#3",
                "vel": 59
            },
            {
                "midi": 76,
                "name": "E5",
                "vel": 65
            }
        ]
    },
    {
        "time": 60.607,
        "notes": [
            {
                "midi": 64,
                "name": "E4",
                "vel": 45
            },
            {
                "midi": 45,
                "name": "A2",
                "vel": 99
            }
        ]
    },
    {
        "time": 60.932,
        "notes": [
            {
                "midi": 52,
                "name": "E3",
                "vel": 56
            }
        ]
    },
    {
        "time": 61.234,
        "notes": [
            {
                "midi": 56,
                "name": "G#3",
                "vel": 57
            }
        ]
    },
    {
        "time": 61.35,
        "notes": [
            {
                "midi": 45,
                "name": "A2",
                "vel": 93
            }
        ]
    },
    {
        "time": 61.548,
        "notes": [
            {
                "midi": 61,
                "name": "C#4",
                "vel": 62
            }
        ]
    },
    {
        "time": 61.852,
        "notes": [
            {
                "midi": 56,
                "name": "G#3",
                "vel": 66
            }
        ]
    },
    {
        "time": 62.166,
        "notes": [
            {
                "midi": 52,
                "name": "E3",
                "vel": 61
            }
        ]
    },
    {
        "time": 62.35,
        "notes": [
            {
                "midi": 45,
                "name": "A2",
                "vel": 77
            },
            {
                "midi": 61,
                "name": "C#4",
                "vel": 29
            }
        ]
    },
    {
        "time": 62.491,
        "notes": [
            {
                "midi": 64,
                "name": "E4",
                "vel": 44
            },
            {
                "midi": 45,
                "name": "A2",
                "vel": 87
            }
        ]
    },
    {
        "time": 62.502,
        "notes": [
            {
                "midi": 61,
                "name": "C#4",
                "vel": 66
            }
        ]
    },
    {
        "time": 62.595,
        "notes": [
            {
                "midi": 49,
                "name": "C#3",
                "vel": 45
            }
        ]
    },
    {
        "time": 62.827,
        "notes": [
            {
                "midi": 56,
                "name": "G#3",
                "vel": 59
            }
        ]
    },
    {
        "time": 63.07,
        "notes": [
            {
                "midi": 64,
                "name": "E4",
                "vel": 46
            }
        ]
    },
    {
        "time": 63.093,
        "notes": [
            {
                "midi": 45,
                "name": "A2",
                "vel": 73
            }
        ]
    },
    {
        "time": 63.105,
        "notes": [
            {
                "midi": 52,
                "name": "E3",
                "vel": 62
            }
        ]
    },
    {
        "time": 63.407,
        "notes": [
            {
                "midi": 61,
                "name": "C#4",
                "vel": 74
            }
        ]
    },
    {
        "time": 63.618,
        "notes": [
            {
                "midi": 64,
                "name": "E4",
                "vel": 46
            }
        ]
    },
    {
        "time": 63.745,
        "notes": [
            {
                "midi": 56,
                "name": "G#3",
                "vel": 76
            }
        ]
    },
    {
        "time": 64.059,
        "notes": [
            {
                "midi": 52,
                "name": "E3",
                "vel": 66
            }
        ]
    },
    {
        "time": 64.198,
        "notes": [
            {
                "midi": 40,
                "name": "E2",
                "vel": 41
            }
        ]
    },
    {
        "time": 64.373,
        "notes": [
            {
                "midi": 59,
                "name": "B3",
                "vel": 64
            }
        ]
    },
    {
        "time": 64.441,
        "notes": [
            {
                "midi": 45,
                "name": "A2",
                "vel": 88
            }
        ]
    },
    {
        "time": 64.686,
        "notes": [
            {
                "midi": 61,
                "name": "C#4",
                "vel": 58
            }
        ]
    },
    {
        "time": 64.72,
        "notes": [
            {
                "midi": 52,
                "name": "E3",
                "vel": 55
            }
        ]
    },
    {
        "time": 64.755,
        "notes": [
            {
                "midi": 45,
                "name": "A2",
                "vel": 95
            }
        ]
    },
    {
        "time": 64.986,
        "notes": [
            {
                "midi": 56,
                "name": "G#3",
                "vel": 56
            }
        ]
    },
    {
        "time": 65.311,
        "notes": [
            {
                "midi": 52,
                "name": "E3",
                "vel": 54
            },
            {
                "midi": 64,
                "name": "E4",
                "vel": 58
            }
        ]
    },
    {
        "time": 65.627,
        "notes": [
            {
                "midi": 61,
                "name": "C#4",
                "vel": 62
            }
        ]
    },
    {
        "time": 65.907,
        "notes": [
            {
                "midi": 56,
                "name": "G#3",
                "vel": 75
            }
        ]
    },
    {
        "time": 66.232,
        "notes": [
            {
                "midi": 45,
                "name": "A2",
                "vel": 84
            },
            {
                "midi": 64,
                "name": "E4",
                "vel": 56
            }
        ]
    },
    {
        "time": 66.557,
        "notes": [
            {
                "midi": 61,
                "name": "C#4",
                "vel": 71
            }
        ]
    },
    {
        "time": 66.845,
        "notes": [
            {
                "midi": 87,
                "name": "D#6",
                "vel": 53
            },
            {
                "midi": 68,
                "name": "G#4",
                "vel": 45
            }
        ]
    },
    {
        "time": 66.975,
        "notes": [
            {
                "midi": 61,
                "name": "C#4",
                "vel": 52
            }
        ]
    },
    {
        "time": 67.032,
        "notes": [
            {
                "midi": 49,
                "name": "C#3",
                "vel": 43
            }
        ]
    },
    {
        "time": 67.182,
        "notes": [
            {
                "midi": 45,
                "name": "A2",
                "vel": 88
            },
            {
                "midi": 64,
                "name": "E4",
                "vel": 66
            }
        ]
    },
    {
        "time": 67.473,
        "notes": [
            {
                "midi": 45,
                "name": "A2",
                "vel": 73
            }
        ]
    },
    {
        "time": 67.484,
        "notes": [
            {
                "midi": 76,
                "name": "E5",
                "vel": 40
            },
            {
                "midi": 88,
                "name": "E6",
                "vel": 71
            }
        ]
    },
    {
        "time": 67.495,
        "notes": [
            {
                "midi": 64,
                "name": "E4",
                "vel": 58
            }
        ]
    },
    {
        "time": 67.58,
        "notes": [
            {
                "midi": 61,
                "name": "C#4",
                "vel": 47
            }
        ]
    },
    {
        "time": 68.02,
        "notes": [
            {
                "midi": 37,
                "name": "C#2",
                "vel": 27
            }
        ]
    },
    {
        "time": 68.148,
        "notes": [
            {
                "midi": 61,
                "name": "C#4",
                "vel": 38
            },
            {
                "midi": 44,
                "name": "G#2",
                "vel": 45
            },
            {
                "midi": 71,
                "name": "B4",
                "vel": 51
            },
            {
                "midi": 56,
                "name": "G#3",
                "vel": 52
            },
            {
                "midi": 49,
                "name": "C#3",
                "vel": 81
            }
        ]
    },
    {
        "time": 68.159,
        "notes": [
            {
                "midi": 37,
                "name": "C#2",
                "vel": 55
            },
            {
                "midi": 59,
                "name": "B3",
                "vel": 51
            }
        ]
    },
    {
        "time": 68.264,
        "notes": [
            {
                "midi": 63,
                "name": "D#4",
                "vel": 53
            }
        ]
    },
    {
        "time": 68.45,
        "notes": [
            {
                "midi": 61,
                "name": "C#4",
                "vel": 40
            }
        ]
    },
    {
        "time": 68.741,
        "notes": [
            {
                "midi": 88,
                "name": "E6",
                "vel": 72
            }
        ]
    },
    {
        "time": 68.752,
        "notes": [
            {
                "midi": 49,
                "name": "C#3",
                "vel": 54
            }
        ]
    },
    {
        "time": 68.868,
        "notes": [
            {
                "midi": 56,
                "name": "G#3",
                "vel": 52
            }
        ]
    },
    {
        "time": 68.891,
        "notes": [
            {
                "midi": 37,
                "name": "C#2",
                "vel": 47
            }
        ]
    },
    {
        "time": 68.914,
        "notes": [
            {
                "midi": 59,
                "name": "B3",
                "vel": 48
            }
        ]
    },
    {
        "time": 69.391,
        "notes": [
            {
                "midi": 87,
                "name": "D#6",
                "vel": 76
            }
        ]
    },
    {
        "time": 69.402,
        "notes": [
            {
                "midi": 63,
                "name": "D#4",
                "vel": 56
            }
        ]
    },
    {
        "time": 69.53,
        "notes": [
            {
                "midi": 49,
                "name": "C#3",
                "vel": 48
            }
        ]
    },
    {
        "time": 69.543,
        "notes": [
            {
                "midi": 68,
                "name": "G#4",
                "vel": 43
            }
        ]
    },
    {
        "time": 69.589,
        "notes": [
            {
                "midi": 88,
                "name": "E6",
                "vel": 42
            },
            {
                "midi": 59,
                "name": "B3",
                "vel": 46
            }
        ]
    },
    {
        "time": 69.705,
        "notes": [
            {
                "midi": 61,
                "name": "C#4",
                "vel": 41
            }
        ]
    },
    {
        "time": 70.041,
        "notes": [
            {
                "midi": 37,
                "name": "C#2",
                "vel": 47
            },
            {
                "midi": 49,
                "name": "C#3",
                "vel": 60
            },
            {
                "midi": 83,
                "name": "B5",
                "vel": 73
            }
        ]
    },
    {
        "time": 70.193,
        "notes": [
            {
                "midi": 59,
                "name": "B3",
                "vel": 45
            }
        ]
    },
    {
        "time": 70.68,
        "notes": [
            {
                "midi": 78,
                "name": "F#5",
                "vel": 67
            }
        ]
    },
    {
        "time": 70.691,
        "notes": [
            {
                "midi": 59,
                "name": "B3",
                "vel": 46
            }
        ]
    },
    {
        "time": 70.832,
        "notes": [
            {
                "midi": 44,
                "name": "G#2",
                "vel": 44
            }
        ]
    },
    {
        "time": 71.355,
        "notes": [
            {
                "midi": 80,
                "name": "G#5",
                "vel": 66
            }
        ]
    },
    {
        "time": 71.377,
        "notes": [
            {
                "midi": 44,
                "name": "G#2",
                "vel": 48
            }
        ]
    },
    {
        "time": 71.993,
        "notes": [
            {
                "midi": 81,
                "name": "A5",
                "vel": 72
            }
        ]
    },
    {
        "time": 72.714,
        "notes": [
            {
                "midi": 80,
                "name": "G#5",
                "vel": 68
            }
        ]
    },
    {
        "time": 72.852,
        "notes": [
            {
                "midi": 44,
                "name": "G#2",
                "vel": 44
            }
        ]
    },
    {
        "time": 73.445,
        "notes": [
            {
                "midi": 69,
                "name": "A4",
                "vel": 37
            },
            {
                "midi": 76,
                "name": "E5",
                "vel": 90
            }
        ]
    },
    {
        "time": 73.689,
        "notes": [
            {
                "midi": 80,
                "name": "G#5",
                "vel": 53
            }
        ]
    },
    {
        "time": 74.166,
        "notes": [
            {
                "midi": 75,
                "name": "D#5",
                "vel": 98
            }
        ]
    },
    {
        "time": 74.525,
        "notes": [
            {
                "midi": 75,
                "name": "D#5",
                "vel": 71
            }
        ]
    },
    {
        "time": 74.898,
        "notes": [
            {
                "midi": 71,
                "name": "B4",
                "vel": 62
            }
        ]
    },
    {
        "time": 75.234,
        "notes": [
            {
                "midi": 52,
                "name": "E3",
                "vel": 41
            }
        ]
    },
    {
        "time": 75.455,
        "notes": [
            {
                "midi": 76,
                "name": "E5",
                "vel": 48
            }
        ]
    },
    {
        "time": 75.768,
        "notes": [
            {
                "midi": 63,
                "name": "D#4",
                "vel": 39
            }
        ]
    },
    {
        "time": 76.327,
        "notes": [
            {
                "midi": 56,
                "name": "G#3",
                "vel": 56
            }
        ]
    },
    {
        "time": 76.384,
        "notes": [
            {
                "midi": 49,
                "name": "C#3",
                "vel": 68
            }
        ]
    },
    {
        "time": 76.477,
        "notes": [
            {
                "midi": 56,
                "name": "G#3",
                "vel": 67
            }
        ]
    },
    {
        "time": 76.57,
        "notes": [
            {
                "midi": 59,
                "name": "B3",
                "vel": 82
            }
        ]
    },
    {
        "time": 76.664,
        "notes": [
            {
                "midi": 63,
                "name": "D#4",
                "vel": 80
            }
        ]
    },
    {
        "time": 76.743,
        "notes": [
            {
                "midi": 56,
                "name": "G#3",
                "vel": 67
            }
        ]
    },
    {
        "time": 76.757,
        "notes": [
            {
                "midi": 59,
                "name": "B3",
                "vel": 63
            },
            {
                "midi": 68,
                "name": "G#4",
                "vel": 81
            }
        ]
    },
    {
        "time": 76.768,
        "notes": [
            {
                "midi": 44,
                "name": "G#2",
                "vel": 52
            }
        ]
    },
    {
        "time": 77.105,
        "notes": [
            {
                "midi": 80,
                "name": "G#5",
                "vel": 41
            }
        ]
    },
    {
        "time": 80.368,
        "notes": [
            {
                "midi": 56,
                "name": "G#3",
                "vel": 51
            },
            {
                "midi": 63,
                "name": "D#4",
                "vel": 85
            }
        ]
    },
    {
        "time": 80.625,
        "notes": [
            {
                "midi": 59,
                "name": "B3",
                "vel": 44
            }
        ]
    },
    {
        "time": 80.636,
        "notes": [
            {
                "midi": 56,
                "name": "G#3",
                "vel": 42
            }
        ]
    }
]